<svg xmlns="http://www.w3.org/2000/svg" width="507.52" height="104.29" viewBox="0 0 507.52 104.29">
  <defs>
    <style>
      .cls-1 {
        fill: #fff;
      }

      .cls-2 {
        fill: #c7493a;
      }

      .cls-3 {
        fill: #f2b622;
      }

      .cls-4 {
        fill: #199e91;
      }

      .cls-5 {
        fill: #197cb2;
      }
    </style>
  </defs>
  <title>Pony.Games_1</title>
  <g id="Layer_2" data-name="Layer 2">
    <g id="Layer_2-2" data-name="Layer 2">
      <g>
        <path class="cls-1" d="M502.87,4.53A15.16,15.16,0,0,0,492,0H85.18A9.66,9.66,0,0,0,77.7,3.88a30.42,30.42,0,0,0-2.6,4.17A44.94,44.94,0,0,0,45.43.56C14.78,3.32,1.2,33.41.64,34.69a7.5,7.5,0,0,0,2.46,9.1A7.37,7.37,0,0,0,5.66,45c-.13.65-.24,1.3-.34,2a7.51,7.51,0,0,0,12.35,6.69,49.19,49.19,0,0,1,6.57-4.5c0,.47,0,.95,0,1.44a6.61,6.61,0,0,1-3.45,2.88c-5,1.47-6.86,5.25-7,8.25C13.64,65.18,17.33,84.31,26,88.21a57.55,57.55,0,0,0,18.25,4.67c-.15.35-.3.71-.44,1.07a7.48,7.48,0,0,0,6.94,10.33H477.05a17.39,17.39,0,0,0,11.18-4l.12-.1a17.66,17.66,0,0,0,5.86-9.82,2,2,0,0,0,.05-.24l3.16-17.17a25,25,0,0,0,.52-5,20.94,20.94,0,0,0-2.36-9.74c-.39-.86-1.45-2.94-6.51-11.72H496a7.5,7.5,0,0,0,7.38-6.18l3.89-21.81a13.38,13.38,0,0,0,.27-2.92A15.2,15.2,0,0,0,502.87,4.53Z"/>
        <g>
          <g>
            <path class="cls-2" d="M103.34,96.79,119.53,7.5H143a7.54,7.54,0,0,1,5.61,2.37A7.76,7.76,0,0,1,151,15.59a9.37,9.37,0,0,1-.18,1.44l-5.73,31.63a9.84,9.84,0,0,1-9.65,8.09h-14l-7.29,40ZM131.8,46.73a3.69,3.69,0,0,0,2.43-.88,3.1,3.1,0,0,0,1.24-2.11l4.42-23.23v-.37a2.53,2.53,0,0,0-.75-1.87,2.58,2.58,0,0,0-1.8-.68h-8.91L123,46.73Z"/>
            <path class="cls-3" d="M181.42,7.5A7.44,7.44,0,0,1,187,9.87a7.77,7.77,0,0,1,2.37,5.72A5.92,5.92,0,0,1,189.2,17L176.38,88.75a10.17,10.17,0,0,1-9.84,8H151.66a7.5,7.5,0,0,1-5.6-2.37,7.84,7.84,0,0,1-2.31-5.67V87.2l12.83-71.61A9.86,9.86,0,0,1,160,9.8a9.69,9.69,0,0,1,6.29-2.3ZM154.71,84.15a2.64,2.64,0,0,0,.75,1.86,2.43,2.43,0,0,0,1.86.81h5.73a3.59,3.59,0,0,0,3.8-3.11l11.4-63.2v-.37a2.53,2.53,0,0,0-.75-1.87,2.69,2.69,0,0,0-1.87-.68h-5.79a3.89,3.89,0,0,0-2.43.87,3.39,3.39,0,0,0-1.31,2.05L154.71,83.83Z"/>
            <path class="cls-4" d="M183.85,96.79,200,7.5h10.77q4.66,48.32,4.86,68.18.62-17.57,9.71-68.18h10.77L220,96.79H209.19q-4.6-48.14-4.79-66.56-.63,15.44-9.72,66.56Z"/>
            <path class="cls-5" d="M244.68,62.29,242.13,7.5h10.71l-.13,39.66,16-39.66h11.33l-24.6,54.61-6.29,34.68H238.39Z"/>
            <path d="M280.67,86l-2,10.84H267.91l2-10.84Z"/>
            <path d="M318.77,88.75a9.62,9.62,0,0,1-3.48,5.73,9.73,9.73,0,0,1-6.35,2.31H294.06a7.54,7.54,0,0,1-5.61-2.37,7.87,7.87,0,0,1-2.3-5.67V87.2L299,15.59A9.87,9.87,0,0,1,302.4,9.8a9.67,9.67,0,0,1,6.29-2.3h15.13a7.45,7.45,0,0,1,5.54,2.37,7.77,7.77,0,0,1,2.37,5.72A6.47,6.47,0,0,1,331.6,17l-4,22.29H317.28l3.36-18.81v-.37a2.56,2.56,0,0,0-.74-1.87,2.71,2.71,0,0,0-1.87-.68h-5.79a3.89,3.89,0,0,0-2.43.87,3.34,3.34,0,0,0-1.31,2.05L297.11,83.83v.32a2.67,2.67,0,0,0,.74,1.86,2.44,2.44,0,0,0,1.87.81h5.73a3.6,3.6,0,0,0,3.8-3.11l5.1-27.33h-5.91l1.8-10H326.5Z"/>
            <path d="M339.76,82.09l-5.05,14.7H323.32L356.94,7.5h10.71l-7,89.29H350.53L352,82.09ZM353,72l3.92-39.53L343.24,72Z"/>
            <path d="M387.51,40.37l-10,56.42H366.72L383,7.5h13.51l-1.37,64.32L416.65,7.5h14.82L415.28,96.79H404.51l9.9-55.73L396.29,96.79h-9.46Z"/>
            <path d="M438.94,7.5h24.22l-1.74,10.09H448l-5,28.2h13.39l-1.87,10H441.12l-5.54,31.07h13.2l-1.8,10H422.76Z"/>
            <path d="M488.82,61.48A13.37,13.37,0,0,1,490.44,68a17.51,17.51,0,0,1-.38,3.55l-3.17,17.24a10.21,10.21,0,0,1-3.43,5.73,9.79,9.79,0,0,1-6.41,2.31H462.17a7.31,7.31,0,0,1-5.54-2.37,7.92,7.92,0,0,1-2.18-5.67V87.32l3.92-22.66h10.34l-3.37,19.17v.32a2.64,2.64,0,0,0,.75,1.86,2.37,2.37,0,0,0,1.81.81h5.73a4,4,0,0,0,2.49-.87,4.16,4.16,0,0,0,1.43-2.24l2.24-12.58a5.55,5.55,0,0,0,.12-1.18,13.79,13.79,0,0,0-2.18-6.41q-1-1.82-5.35-10-4.86-9.15-5.6-10.58a20.22,20.22,0,0,1-2.37-9.21A19.55,19.55,0,0,1,464.6,31l2.67-15.44a9.76,9.76,0,0,1,3.49-5.79,9.52,9.52,0,0,1,6.29-2.3H492a7.67,7.67,0,0,1,5.61,2.37A7.66,7.66,0,0,1,500,15.59,6.58,6.58,0,0,1,499.9,17L496,39H485.52l3.3-18.49a.68.68,0,0,0,.12-.37,2.56,2.56,0,0,0-.81-1.87,2.83,2.83,0,0,0-1.87-.68h-5.72a3.7,3.7,0,0,0-2.43.87,3.34,3.34,0,0,0-1.31,2.05L475,30.41a14.6,14.6,0,0,0-.18,2.31,17.16,17.16,0,0,0,2.86,9.09Q487.94,59.42,488.82,61.48Z"/>
          </g>
          <g>
            <g>
              <path class="cls-2" d="M98.25,41.87a30.6,30.6,0,0,1-2.46,7.3,31.22,31.22,0,0,1-2.67,4.52,31.42,31.42,0,0,1-4.31,6.2C84,65.3,69.64,79.63,69.64,95.43c0,0,4.17-6.14,8.44-7.59a42.64,42.64,0,0,0-3.18,9H90.74a35,35,0,0,1,3.15-15.51C105.41,56.67,100.18,44.94,98.25,41.87Z"/>
              <path class="cls-2" d="M77.81,23.75c.2-1.1.42-2.12.65-3.1C72.24,14.14,61.57,6.64,46.1,8,19.51,10.42,7.5,37.71,7.5,37.71s8.86-8,16.34-8.77c0,0-9.58,8.14-11.09,19a67,67,0,0,1,21.63-11.6,60.24,60.24,0,0,1,26.77-2.55s-3.72,4.61-12.53,5.79c0,0,7.56,8.88,28.07-2A78.79,78.79,0,0,1,77.81,23.75Z"/>
            </g>
            <path d="M87,8.18a2.12,2.12,0,0,0-3.27.2c-1.5,2-3.7,5.82-5.24,12.27-.23,1-.45,2-.65,3.1a78.79,78.79,0,0,0-1.12,13.83c-20.51,10.91-28.07,2-28.07,2,8.81-1.18,12.53-5.79,12.53-5.79a60.24,60.24,0,0,0-26.77,2.55,41.51,41.51,0,0,0-2.7,14.47c-.08,4.32-4.69,8.52-8.81,9.8-.94.27-1.57.72-1.59,1.36-.15,3.71,3.95,17.65,7.79,19.39,8.24,3.76,17.19,4.5,26.75,4.5a115.81,115.81,0,0,0-5.11,10.9H74.9a42.64,42.64,0,0,1,3.18-9c-4.27,1.45-8.44,7.59-8.44,7.59,0-15.8,14.36-30.13,19.17-35.54a31.42,31.42,0,0,0,4.31-6.2,31.22,31.22,0,0,0,2.67-4.52,30.6,30.6,0,0,0,2.46-7.3C100,33.45,98.54,21.83,87,8.18Z"/>
          </g>
        </g>
      </g>
    </g>
  </g>
</svg>
